<svg viewBox="0 0 125 225" height="225" width="125" data-background-color="#ffffff" preserveAspectRatio="xMidYMid meet" id="tight-bounds" xmlns="http://www.w3.org/2000/svg" xmlns:xlink="http://www.w3.org/1999/xlink"><g><svg/></g><g><svg viewBox="0 0 125 225" height="225" width="125"><g><path xmlns="http://www.w3.org/2000/svg" d="M33.402 55.033c0-0.436 0.218-0.872 0.654-0.872 0.436 0 0.872 0.218 0.872 0.872 0.218 0 0.654 0 0.873-0.218 0.872 0 1.745-0.218 2.399 0 0.654 0.218 1.09 0.218 1.744 0.436 0.654 0.218 1.09 0 1.527-0.218 0.872-0.218 1.527-0.654 2.399-0.872 0.436-0.218 0.654-0.218 1.091-0.218 0.436-0.218 0.872-0.218 1.526-0.437 1.09-0.218 2.181-0.436 3.053-0.872 0.872-0.436 1.745-0.436 2.618-0.654 0.436 0 0.654-0.218 1.09-0.436 0.218 0 0.218-0.218 0.436-0.437 0.436-0.218 0.654-0.436 1.091-0.218 0.218 0.218 0.654 0.218 0.872 0h0.218c1.309 0 2.617-0.218 4.144 0 0.218 0 0.436 0 0.436 0 0.654-0.436 1.527-0.436 2.399-0.436 0.218 0 0.654 0 0.872 0h0.218c0.872 0 1.745 0 2.399 0.218 0.654 0 1.09 0.218 1.745 0.436 0.654 0 1.09 0 1.745 0.218 0.436 0 0.872 0 1.308 0 0.218 0 0.436 0 0.437 0 0.872 0.218 1.745 0.218 2.617 0.219 0.654 0.218 1.309 0.436 2.181 0.436 0.218 0 0.436 0 0.654 0 0.218 0 0.436 0.218 0.654 0.218l0.218 0.218c0.872 0 1.527 0.436 2.399 0.436 0.218 0 0.654 0 0.873 0.218 0.654 0.436 1.527 0.654 2.399 0.654 0.436 0 0.654 0.218 0.872 0.437 0.654 0.218 1.09 0.436 1.745 0.654 0.436 0.218 0.872 0 1.308 0.218 0.654 0.218 1.527 0.436 2.181 1.09 0.436 0.436 0.872 0.436 1.527 0.873 0.218 0 0.436 0.218 0.654 0.436 0.654 0.436 1.309 0.872 1.963 1.09 0.218 0 0.436 0.218 0.654 0.219 0.654 0.436 1.309 1.09 2.181 1.526 0.436 0.218 0.654 0.436 1.091 0.654h0.218c0.654 0.654 1.527 1.09 2.181 1.745 0.654 0.654 1.09 1.09 1.962 1.527 0 0 0 0 0 0.218 0.218 0.436 0.436 0.654 0.873 0.872 0.436 0.218 0.654 0.436 0.872 0.655 0.654 0.436 1.309 0.872 1.745 1.308 0.218 0.218 0.436 0.436 0.872 0.872 0.218 0.218 0.436 0.436 0.654 0.437 0.872 0.218 1.309 0.872 1.963 1.526 0.436 0.436 1.09 1.09 1.527 1.527 0.218 0.218 0.436 0.654 0.654 1.09 0.436 1.309 1.09 2.617 1.745 3.708 0 0 0 0.218 0.218 0.436v0.218c0.436 0.436 0.654 1.09 1.09 1.527 0.218 0.218 0.218 0.436 0.437 0.654 0.436 0.654 0.654 1.527 1.09 2.181 0.654 1.09 1.09 2.181 1.527 3.271v0.218c0.218 0.436 0.436 0.872 0.654 1.527 0 0.436 0.436 0.872 0.654 1.527 0.218 1.09 0.872 2.181 1.091 3.489 0 0.218 0.218 0.436 0.218 0.873 0.218 0.654 0.436 1.309 0.654 1.962 0 0.218 0.218 0.436 0.436 0.655 0.436 0.436 0.436 0.872 0.436 1.308-0.218 0.872 0 1.745 0.219 2.617 0 0.218 0 0.436 0 0.873 0.218 0.872 0.436 1.963 0.436 2.835 0 0.218 0 0.654 0 0.872 0 0.654 0.218 1.309 0.654 1.963 0 0.218 0.218 0.218 0.218 0.218 0.218 0.218 0.436 0.654 0.654 0.872 0.218 0.218 0.218 0.218 0.437 0.437 0.436 0.436 0.654 0.872 0.654 1.526 0 0.218-0.218 0.654-0.218 0.873 0 0.218 0 0.654 0.218 0.872 0.218 0.218 0.218 0.436 0.218 0.654 0 0.218-0.218 0.436-0.436 0.436v0c-0.218 0.654-1.09 0.872-1.309 1.527-0.218 0.872-0.436 1.745-0.654 2.617-0.218 0.654-0.218 1.09-0.218 1.745 0 0.654-0.218 1.09-0.218 1.745-0.218 0.872-0.436 1.745-0.655 2.617 0 0.436-0.218 0.872-0.218 1.308 0.218 0.218 0.436 0.436 0.655 0.436 0.436 0.436 0.872 0.872 1.308 1.309 0.218 0.218 0.218 0.436 0 0.436-0.218 0.218-0.436 0.218-0.654 0.218-0.218-0.218-0.654-0.436-0.872-0.436-0.218-0.218-0.654-0.436-1.091-0.218 0 0.436-0.218 0.872-0.218 1.09-0.218 0.436-0.436 1.09-0.436 1.527-0.218 0.872-0.654 1.527-0.873 2.399-0.436 1.09-0.872 1.963-1.308 2.835-0.218 0.436-0.436 0.872-0.654 1.309v0c0 0.654-0.654 1.309-0.873 1.963-0.436 0.872-0.872 1.745-1.308 2.835-0.218 0.436-0.436 0.872-0.655 1.09-0.436 1.09-0.872 1.963-1.526 2.836-0.436 0.654-0.872 1.09-1.309 1.308-0.436 0.436-0.872 0.872-1.308 1.309-0.218 0.218-0.436 0.436-0.655 0.654-0.218 0.218-0.218 0.218-0.436 0.436-0.436 0.654-1.09 1.09-1.526 1.745-0.436 0.436-0.654 0.872-1.309 1.308-0.436 0.436-0.872 1.09-1.527 1.309-0.218 0.218-0.436 0.654-0.654 0.872-0.218 0.218-0.436 0.654-0.654 0.873 0 0.436 0.218 0.872 0.218 1.09 0 0.654-0.654 0.872-1.09 0.436-0.654-0.436-0.654-0.436-1.309 0-0.654 0.436-1.309 1.09-2.181 1.309-0.218 0-0.218 0.218-0.436 0.218-0.436 0.218-0.654 0.654-1.091 0.872-0.436 0.436-1.09 0.654-1.526 1.091-0.218 0.218-0.436 0.218-0.655 0.436-0.654 0.436-1.309 0.654-1.962 1.308-0.218 0.218-0.436 0.218-0.655 0.437 0 0.218 0 0.218 0 0.436 0 0.436-0.436 0.872-1.09 0.654-0.654-0.218-1.09 0-1.745 0-0.654 0.218-1.309 0.654-1.963 0.872-0.218 0-0.436 0.218-0.654 0.437-0.654 0.436-1.309 0.654-1.963 0.872-0.436 0-0.872 0.436-1.308 0.436-0.218 0-0.436 0.218-0.655 0.218h-0.218c-0.872 0.654-1.745 1.09-2.617 1.745-0.218 0-0.218 0.218-0.436 0.436-0.218 0.436-0.436 0.654-0.872 0.654-1.09 0-1.527 0.872-1.309 1.745 0 0.218 0.218 0.436 0.218 0.654 0.218 0.436 0 0.872-0.218 1.091-0.218 0.218-0.872 0.218-1.09-0.218-0.436-0.436-0.654-0.872-0.873-1.527-0.218-0.436-0.654-0.872-1.09-1.09-0.436-0.218-0.872-0.218-1.309 0-0.218 0-0.218 0.218-0.436 0.218-0.436 0.436-1.09 0.654-1.745 0.436-0.218 0-0.654 0-0.654 0.218-0.218 0.218-0.218 0.654 0 0.872 0.436 0.436 0.218 0.872 0.218 1.527 0 0.872-0.654 1.309-1.526 0.872-0.218-0.218-0.436-0.218-0.655-0.436-0.218 0-0.218-0.218-0.218-0.436-0.218-0.218-0.218-0.654-0.436-1.09-0.436 0.218-0.872 0.218-1.308 0.436-0.218 0-0.436 0.218-0.655 0.218-0.654 0-0.872 0-1.09-0.654-0.218-0.654-0.654-0.654-1.091-0.873-0.872-0.218-1.963-0.218-2.835-0.654h-0.218c-0.872-0.654-1.745-0.654-2.835-0.654-0.654 0-1.309 0.218-1.963 0.218-0.654 0-1.09 0.218-1.527 0.654-0.218 0.218-0.436 0.436-0.654 0.436-0.218-0.218-0.218-0.436-0.436-0.654v-0.218c0-0.218-0.218-0.436-0.436-0.218-0.436 0.218-0.872-0.218-1.309-0.436-0.218-0.218-0.654-0.654-0.654-1.091-0.218-0.218-0.436-0.436-0.654-0.436-0.436 0-1.09-0.218-1.527-0.218-0.218 0-0.436 0-0.436-0.218-0.218-0.218-0.436-0.218-0.872-0.218-0.218 0-0.218-0.218-0.437-0.218 0.436 0.436 0.654 0.872 0.873 1.308 0 0.218 0.218 0.218 0.218 0.436 0.218 0.436 0 0.654-0.654 0.655-0.436 0-0.436 0-0.655 0.218 0 0.436 0 0.654 0 1.09 0 0.218 0 0.436-0.436 0.654 0 0-0.218 0-0.218 0.219-0.218 0.218-0.218 0.436 0 0.654 0.654 0.436 1.09 0.654 1.745 0.872 0.654 0 0.654 0.436 0.872 0.872 0.218 0.436 0 0.654-0.218 1.091-0.436 0.436-0.872 0.872-1.309 1.309-0.654 0.218-1.09 0.872-1.744 0.872-0.436 0-0.872-0.218-1.091-0.654-0.218-1.09-0.218-1.963 0.218-3.054 0-0.218 0.218-0.436 0-0.654-1.963 0-1.963-0.436-1.962-0.654 0-0.436 0.218-0.654 0.218-1.091 0.218-0.436 0-0.654-0.655-0.872-0.218 0-0.436 0-0.654 0-0.218 0-0.218-0.218-0.654-0.218 0.436-0.218 0.654-0.218 1.09-0.436-0.218-0.872-0.436-1.527-1.09-1.963-0.218-0.218-0.436-0.436-0.436-0.872 0-0.654-0.436-1.09-0.655-1.527-0.436-0.654-1.309-0.872-1.962-0.872-0.654-0.218-1.09-0.218-1.745-0.437-0.654-0.218-1.309-0.872-1.963-1.09-0.218-0.218-0.436-0.436-0.872-0.654-0.872-0.436-1.527-1.09-2.181-1.745-0.436-0.218-0.654-0.654-1.091-0.872-0.436-0.436-0.654-0.872-1.09-1.091-0.436-0.436-0.872-0.872-1.527-1.309-0.654-0.436-1.09-1.09-1.745-1.744-0.436-0.654-1.09-1.09-1.744-1.527-0.218 0-0.436 0-0.655 0-0.218 0-0.436 0.218-0.654 0.218-0.654 0.218-1.09 0.654-1.745 0.873 0.218-0.218 0.218-0.218 0-0.655-0.218-0.218-0.436-0.436-0.654-0.436-0.436 0-0.872 0-1.308 0-0.872 0-1.745 0.218-2.617 0.218-0.654 0-1.527 0.218-2.181 0.436 0.218 0.436 0.218 0.654 0.436 1.091-0.436 0.218-0.872 0.218-1.309 0.218-0.218 0-0.654 0.218-0.872 0.436-0.218 0-0.218 0.218-0.436 0-0.436-0.218-0.872 0-1.309 0.218h-0.218c0 0 0-0.218 0.218-0.218 0.218-0.218 0.436-0.436 0.654-0.654 0.218-0.218 0.436-0.218 0.873-0.436-0.218-0.218-0.218-0.436-0.218-0.437-0.218-0.218-0.436-0.218-0.655 0-0.218 0.218-0.436 0.436-0.654 0.655-0.218 0.218-0.436 0.218-0.654 0-0.218-0.218-0.218-0.436 0-0.655 0-0.218 0.218-0.436 0.436-0.654 0.218-0.218 0.218-0.436 0.436-0.654-0.436-0.436-0.654-0.872-1.09-1.091-0.654-0.436-1.309-1.09-1.745-1.744-0.436-0.872-1.09-1.527-1.963-1.963-0.218-0.218-0.436-0.436-0.654-0.654-0.218-0.218-0.218-0.218-0.436-0.437-0.654 0.218-1.09 0.654-1.745 0.873-0.218 0-0.218 0.218-0.436 0.436-0.218 0.436-0.654 0.436-1.091 0.436-0.218 0-0.436-0.218-0.218-0.436 0.218-0.436 0.436-0.872 1.091-0.654 0 0 0.218 0 0.218-0.218 0.436-0.436 0.872-1.09 1.527-1.527-0.218-0.654-0.654-1.09-0.873-1.527-0.218-0.218-0.218-0.436-0.218-0.872 0-0.218 0-0.218-0.218-0.436 0 0-0.218 0-0.436 0.218-0.218 0.218-0.654 0.436-1.091 0 0-0.218 0-0.436 0.218-0.654l0.219-0.218c0.654-0.218 0.654-0.872 0.654-1.527v-0.218c-0.218-0.436-0.218-0.654 0.218-1.091 0.654-0.436 1.309-1.309 1.527-1.962 0.218-0.436 0.654-0.654 1.09-1.091 0.436-0.436 0.872-0.872 1.09-1.527h0.219c0.872 0.218 1.09-0.436 1.526-1.09 0-0.218 0-0.436 0.218-0.436 0.436-0.436 0.436-0.872 0.218-1.527 0-0.218-0.218-0.654-0.218-0.872 0-0.218 0-0.218-0.218-0.436-0.654-0.436-0.654-0.872 0-1.309 0.436-0.218 0.436-0.654 0.654-0.872 0.218-0.436 0.218-0.872 0.219-1.527-0.218-0.654-0.218-1.527-0.437-2.181-0.218-0.872-0.436-1.963-0.654-2.835 0-0.218 0-0.218 0-0.436 0-0.654 0-1.09-0.218-1.745-0.218-0.218-0.218-0.654-0.218-0.872-0.218-0.654-0.436-1.09-1.091-1.309-0.654-0.436-1.527-0.654-2.18-1.09-0.218-0.218-0.436 0-0.655 0.218-0.218 0.436-0.654 0.872-0.872 1.308-0.218 0.218-0.436 0.654-0.654 1.091-0.436 0.436-1.309 0.872-1.963 0.218-0.218-0.436-0.436-0.654 0-1.091 0.436-0.654 0.872-1.309 1.526-1.744 0.218-0.218 0.436-0.654 0.655-0.873 0.218-0.436 0.218-0.872 0.218-1.308-0.218-0.872-0.436-1.745-0.436-2.835 0-1.09 0-1.963 0.218-3.054 0.218-0.436 0.218-1.09 0.436-1.526 0-0.218 0.218-0.654 0.436-0.873 0.436-0.436 0.872-0.872 1.091-1.526 0.218-0.654 0.654-1.309 0.654-1.963 0-0.218 0.218-0.436 0.218-0.654 0-0.218 0.218-0.654 0.218-0.873-0.218-0.654 0-1.09 0.218-1.526 0.218-0.436 0.436-1.09 0.654-1.527 0.436-0.872 0.436-1.963 1.309-2.835 0.218-0.436 0.436-0.872 0.654-1.309 0.218-0.872 0.654-1.527 1.091-2.181 0.218-0.218 0.218-0.218 0.218-0.436 0.218-0.654 0.654-1.309 1.09-1.963 0.436-0.654 0.436-1.309 0.654-1.962 0-0.218 0-0.436 0.219-0.655 0.654-0.654 0.436-1.527 0.218-2.399-0.436-1.09-0.654-2.181-0.437-3.271 0-0.218 0-0.436 0.219-0.436 0.218-0.436 0.218-0.654 0.436-1.091v-0.218c0.436-0.436 0.872-1.09 1.526-1.308 0.872-0.436 1.745-0.654 2.836-0.873 0.872 0 1.745-0.436 2.399-1.308 0-0.218 0.218-0.218 0.436-0.437l0.218-0.218c0.218-0.436 0.436-0.654 0.654-0.872 0.436-0.436 0.872-1.09 1.309-1.527 0.436-0.436 0.872-1.09 1.526-1.744l0.218-0.218c0.436-0.436 0.872-0.872 1.309-1.091 0.436-0.436 0.872-0.872 1.308-1.308 0.436-0.436 0.654-0.872 1.091-1.309 0.436-0.218 0.872-0.654 1.308-1.09 0.436-0.436 0.872-0.872 1.091-1.091 0.436-0.436 1.09-0.872 1.527-1.09 0.436-0.218 0.872-0.436 1.09-1.091 0.218-0.654 0.436-1.09 0.654-1.745 0-0.436 0.218-0.872 0.436-1.308 0.218 0 0.436 0 0.873-0.218-0.218-0.218-0.436-0.218-0.436-0.436 0-0.218 0.218-0.436 0.218-0.437 0-0.218 0.218-0.436 0.218-0.654 0 0 0.218 0 0.218-0.218 0 0 0.218 0 0.218-0.218-0.436 0.218-0.654 0-0.872-0.218 0.218 0.218 0.436 0.218 0.872 0.436 0 0 0.218 0 0.218-0.218 0-0.218 0-0.436 0-0.436 0 0-0.218 0-0.436 0-0.218 0-0.436 0.218-0.654 0.218zM71.131 157.536c0-0.218-0.218-0.218-0.218-0.436-0.218-0.436 0-0.654 0.218-0.873 0.218-0.218 0.436-0.218 0.873-0.218 0.436 0.218 0.654 0.436 0.654 0.873 0 0.218 0 0.654 0 0.872 0.218 0.872 0.218 0.872 1.091 0.872 0.436 0 0.872 0 1.308 0 0.872-0.218 1.745-0.654 2.617-0.872 0.872-0.218 1.745-0.436 2.617-0.654 0.218 0 0.436 0 0.873 0 0.872 0.218 1.527 0 2.181-0.437 0.218-0.218 0.654-0.218 0.872-0.436 0.436-0.218 0.872-0.218 1.308-0.436 1.09-0.654 2.181-1.09 3.054-1.745 0.654-0.436 1.309-0.872 1.963-1.308 0.654-0.436 1.309-0.872 1.962-1.309 0.436-0.218 1.09-0.654 1.527-1.09 0.872-0.654 1.527-1.309 2.399-1.745 0.436-0.218 0.654-0.436 0.872-0.654 0.436-0.218 0.654-0.654 1.091-0.873 0.218-0.218 0.436-0.436 0.872-0.654 0.218-0.218 0.218-0.218 0.218-0.436 0.654-0.436 1.309-1.309 1.745-1.963 0.436-0.436 0.872-0.872 1.309-1.526 0.654-0.654 1.09-1.527 1.744-2.399 0.436-0.436 0.872-1.09 1.091-1.527 0.436-0.872 0.872-1.745 1.526-2.399v-0.218c0.436-0.872 0.872-1.745 1.309-2.617 0.654-1.09 1.09-2.399 1.745-3.49 0.218-0.436 0.436-0.872 0.436-1.308 0.436-0.872 0.654-1.745 0.872-2.617 0-0.218 0-0.218 0.218-0.437 0.654-1.309 1.09-2.617 1.309-4.143 0.218-0.872 0.436-1.745 0.654-2.617 0.436-1.309 0.436-2.399 0.654-3.708 0.218-0.872 0.218-1.963 0.218-2.835 0.218-1.309 0.218-2.835 0-4.144 0-1.09-0.218-2.399-0.218-3.489 0-1.09-0.218-1.963-0.436-3.054-0.218-1.09-0.436-1.963-0.654-3.053-0.436-0.872-0.654-1.745-0.872-2.835-0.218-0.872-0.654-1.527-0.655-2.399 0-0.654-0.218-1.309-0.872-1.527-0.654-0.218-1.09-0.436-1.745-0.872-1.309-0.872-1.963-1.963-1.744-3.271 0-0.654 0.218-1.527 0.436-2.181 0.218-0.654 0.436-1.309 0-1.745-0.218-0.654-0.654-1.09-0.873-1.527-0.436-0.654-0.654-1.09-1.09-1.526-0.436-0.872-0.872-1.745-1.527-2.399-0.872-1.09-1.527-2.181-2.617-3.054l-0.218-0.218c-0.654-0.872-1.309-1.745-2.181-2.399-0.436-0.436-0.872-0.872-1.308-1.09-0.218-0.218-0.436-0.436-0.873-0.654-0.654-0.436-1.309-0.654-1.745-1.091-0.654-0.654-1.527-1.09-2.18-1.527 0 0-0.218 0-0.219-0.218-0.872-0.436-1.527-0.654-2.399-1.09-0.872-0.436-1.745-0.654-2.617-0.654-0.218 0-0.218 0-0.436 0-0.218-0.218-0.654-0.218-0.872-0.218-0.218 0-0.218 0-0.436 0-0.436-0.218-1.09 0-1.527 0-0.872 0.218-1.745 0.218-2.617-0.219-1.09-0.436-1.963-0.872-2.835-1.308-0.654-0.436-1.09-0.872-1.745-1.309-1.309-1.09-2.617-2.399-4.144-3.489 0.218-1.09-0.218-1.309-1.09-1.309-0.436 0-0.872 0.218-1.309 0.437-0.218 0.218-0.218 0.218-0.436 0.436-0.654 0.436-1.09 1.09-1.745 1.526-1.09 0.654-1.527 0.436-2.399 0-0.218-0.218-0.436-0.436-0.654-0.654-0.436-0.436-0.872-1.09-1.09-1.527-0.436-0.872-1.309-0.872-2.181-0.872-0.436 0-1.09 0.218-1.527 0.218-0.872 0-1.745 0.436-2.181 1.091-0.436 0.654-0.872 1.309-1.526 1.962-0.218 0.218-0.654 0.436-0.873 0.873-0.436 0.436-0.872 0.436-1.308 0-0.218-0.218-0.436-0.218-0.655-0.436-0.218 0.218-0.436 0.436-0.436 0.654-0.218 0.436-0.436 0.872-0.654 1.527-0.218 0.654-0.654 1.309-1.091 1.744-0.218 0.218-0.218 0.218-0.436 0.436-0.218 0.436-0.872 0.654-1.308 0.655-0.436 0.436-0.872 1.09-1.091 1.526-0.218 0.436-0.436 0.872-0.654 1.527-0.218 0.218-0.218 0.654-0.436 0.872-0.218 0.436-0.218 0.654-0.218 1.091 0.218 0.654-0.218 0.872-0.873 1.09-0.436 0-0.436 0-0.654 0.436 0 0.654 0.218 1.09 0.436 1.745 0.218 0.218 0.436 0.654 0.436 0.873 0 0.436 0.218 0.654 0.655 0.872 0.218 0.218 0.436 0.436 0.654 0.436 0.218 0 0.218 0.218 0.436 0.218 0.218 0.218 0.436 0 0.436-0.218 0.218-0.654 0.436-1.309 0.437-1.963 0.218-0.872 0.218-1.527 0.436-2.399 0.218-0.436 0.436-0.654 0.654-0.872 0 0 0.218 0 0.436 0v0.218c-0.218 1.09-0.654 2.399-0.872 3.489-0.218 0.436-0.218 0.872-0.436 1.309 0 0.218-0.218 0.436-0.437 0.436-0.436 0.218-0.872 0.436-1.308 0.436-0.218 0-0.436 0-0.654 0-0.436-0.218-0.872-0.654-1.309-0.872-0.218-0.218-0.436-0.436-0.654-0.654-0.218-0.436-0.436-0.872-0.654-1.309-0.218-0.436-0.436-0.654-0.873-0.872-0.218-0.218-0.436-0.218-0.654-0.436-0.436-0.436-0.872-0.654-1.527-0.655-0.218 0-0.654 0-0.872 0-0.218 0-0.654 0.218-0.872 0.437-0.436 0.218-0.654 0.218-1.091 0-1.09-0.436-2.181-0.218-3.271 0.218-0.436 0.218-0.872 0.436-1.309 0.436-1.09 0-1.963 0-3.053 0-1.09 0-1.963-0.218-3.053-0.436-0.436 0-0.872 0-1.309 0-0.872 0.218-1.09 0.872-0.872 1.744 0.218 0.872 0.436 1.963 0.436 2.836 0 0.654 0 1.309 0 1.962 0 0.436 0 0.654 0 1.091 0 0.654-0.218 1.309-0.218 1.963-0.218 1.309-0.872 2.399-1.745 3.271-0.654 0.654-1.527 1.309-2.399 1.527-0.436 0.218-0.872 0.436-1.527 0.654-1.09 0.436-1.963 1.309-2.617 2.399-0.218 0.436-0.436 0.872-0.654 1.309-0.436 0.654-0.654 1.09-1.09 1.744-0.218 0.436-0.654 0.872-0.873 1.309-0.218 0.436-0.654 0.654-0.654 1.09-0.436 0.872-0.654 1.745-1.09 2.617-0.218 0.436-0.218 1.09-0.437 1.527-0.436 0.872-0.436 1.745-0.436 2.835 0 0.218 0 0.436 0 0.873 0 1.09-0.218 2.399-0.218 3.489 0 1.09 0 2.181 0.218 3.271 0 0.436 0 1.09 0 1.527 0 0.872 0.218 1.963 0.218 2.835 0 0.872 0 1.963 0.436 2.835v0.218c0.218 0.872 0.218 1.745 0.437 2.618 0 0.218 0 0.436 0.218 0.654 0.436 1.309 0.654 2.399 1.09 3.707 0.218 0.872 0.654 1.745 0.873 2.617 0.218 0.872 1.09 1.745 1.308 2.836v0c0.654 1.309 1.309 2.617 2.181 3.925 0.218 0.436 0.654 0.872 0.872 1.309 0.436 0.654 0.654 1.309 1.091 1.745 0.218 0.436 0.654 0.872 0.872 1.09 0.218 0.436 0.436 0.872 0.873 1.309 0.436 0.436 0.872 1.09 1.308 1.526 0.654 1.09 1.527 1.963 2.399 2.617 0.436 0.436 0.872 0.654 1.309 1.091 0.218 0.218 0.436 0.218 0.436 0.436 0.218 0.218 0.436 0.436 0.872 0.654 1.745 0.872 3.053 2.181 4.58 3.49 0.654 0.654 1.309 1.309 2.181 1.744 0.872 0.654 1.527 1.309 2.617 1.527 0 0 0.218 0 0.218 0.218 0.436 0.436 1.09 0.654 1.527 0.873 0.872 0.436 1.963 0.872 2.835 1.308 0.218 0.218 0.654 0.218 0.872 0.436 0.654 0.218 1.309 0.436 1.963 0.655 0.654 0.218 1.09 0.436 1.745 0.436h0.218c0.436 0.218 0.654 0.218 1.09 0 0.218 0 0.436 0 0.437 0.218 0 0.218 0.218 0.218 0.436 0.218 0.218 0 0.436 0 0.872 0 0.218-0.218 0.218-0.436 0.436-0.872 0.218 0.218 0.436 0.218 0.437 0.218 0.218 0.436 0.654 0.436 1.09 0.436h0.218c0.436 0 0.654 0 0.872-0.218 0-0.218 0.436-0.218 0.655-0.218 0.654 0.218 1.309 0.218 1.963 0.436 0.436 0.218 1.09 0.218 1.308-0.218 0.218-0.218 0.436-0.436 0.872-0.218 0.436 0.218 0.654 0.218 1.091 0 0.218 0 0.436 0 0.436 0 0.654 0.218 1.09 0.218 1.745 0.436 0.872 0.218 0.872 0.218 1.526-0.436 0.218-0.218 0.654-0.218 0.873 0 0.218 0.436 0.218 0.654 0.218 1.09 0.218 0 0.218 0 0.436-0.218 0-0.436 0.218-0.436 0.654-0.654 0.218 0.218 0.218 0.218 0.437 0.218 0.436 0.436 0.654 0.436 0.872-0.218 0-0.218 0-0.436 0.218-0.436 0.218 0 0.436 0.218 0.436 0.218 0.218 0.436 0.654 0.654 0.873 1.09 0.436 0.436 1.09 0.436 1.308 0 0.218-0.218 0.436-0.218 0.654-0.218 0-0.218 0-0.436 0-0.654 0.654 0.436 0.436 0.436 0.218 0.436zM34.928 55.687c0.654 0.218 1.09 0.218 1.309-0.218-0.436 0.218-0.872-0.218-1.309 0.218z" fill="#4d7e3e" fill-rule="nonzero" stroke="none" stroke-width="1" stroke-linecap="butt" stroke-linejoin="miter" stroke-miterlimit="10" stroke-dasharray="" stroke-dashoffset="0" font-family="none" font-weight="none" font-size="none" text-anchor="none" style="mix-blend-mode: normal" data-fill-palette-color="tertiary"/></g><g transform="matrix(1,0,0,1,48.17785,99.95954511242928)"><svg viewBox="0 0 28.6443 25.080909775141436" height="25.080909775141436" width="28.6443"><g><svg viewBox="0 0 28.6443 25.080909775141436" height="25.080909775141436" width="28.6443"><g><svg viewBox="0 0 28.6443 25.080909775141436" height="25.080909775141436" width="28.6443"><g id="textblocktransform"><svg viewBox="0 0 28.6443 25.080909775141436" height="25.080909775141436" width="28.6443" id="textblock"><g><svg viewBox="0 0 28.6443 25.080909775141436" height="25.080909775141436" width="28.6443"><g><svg viewBox="0 0 28.6443 25.080909775141436" height="25.080909775141436" width="28.6443"><g><svg xmlns="http://www.w3.org/2000/svg" xmlns:xlink="http://www.w3.org/1999/xlink" version="1.1" x="0" y="0" viewBox="13.239999771118164 17.812999725341797 73.5199966430664 64.37400817871094" style="enable-background:new 0 0 100 100;" xml:space="preserve" height="25.080909775141436" width="28.6443" class="icon-icon-0" data-fill-palette-color="accent" id="icon-0"><g fill="#4d7e3e" data-fill-palette-color="accent"><rect x="13.24" y="17.813" width="73.52" height="11.273" fill="#4d7e3e" data-fill-palette-color="accent"/><path d="M17.324 33.173v43.295c0 3.145 2.574 5.719 5.719 5.719h53.916c3.145 0 5.716-2.574 5.716-5.719V33.173H17.324zM59.396 49.757H40.604v-7.514h18.793V49.757z" fill="#4d7e3e" data-fill-palette-color="accent"/></g></svg></g></svg></g></svg></g></svg></g></svg></g><g/></svg></g></svg></g></svg></g><defs/></svg>